<?xml version="1.0" encoding="utf-8"?>
<!-- Generator: Adobe Illustrator 19.1.0, SVG Export Plug-In . SVG Version: 6.00 Build 0)  -->
<svg version="1.1" id="Layer_1" xmlns="http://www.w3.org/2000/svg" xmlns:xlink="http://www.w3.org/1999/xlink" x="0px" y="0px"
	 viewBox="-695 976.5 48.2 48.5" style="enable-background:new -695 976.5 48.2 48.5;" xml:space="preserve">
<g>
	<path d="M-671.2,990.4l5.5,4c0,0-1.6,3.9-4.7,6.4l-5.6-4C-676,996.7-674.8,993.5-671.2,990.4z"/>
	<path d="M-663.2,992.3c0.5,0.4,0.6,1.1,0.3,1.6l0,0c-0.4,0.5-1.1,0.7-1.6,0.3l-6.3-4.4c-0.5-0.4-0.6-1.1-0.3-1.6l0,0
		c0.4-0.5,1.1-0.7,1.6-0.3L-663.2,992.3z"/>
	<path d="M-670.3,1001.6c0.5,0.4,0.6,1.1,0.3,1.6l0,0c-0.4,0.5-1.1,0.7-1.6,0.3l-6.3-4.4c-0.5-0.4-0.6-1.1-0.3-1.6l0,0
		c0.4-0.5,1.1-0.7,1.6-0.3L-670.3,1001.6z"/>
	<path d="M-668.8,997.4c0,0,12.1,10,14.2,9.6c0,0,0.6-0.6-3-3.3c0,0-9.3-6.7-10.6-7.3L-668.8,997.4z"/>
</g>
<path d="M-664.1,1010.6c0,0.9-0.7,1.6-1.6,1.6h-18.4c-0.9,0-1.6-0.7-1.6-1.6l0,0c0-0.9,0.7-1.6,1.6-1.6h18.4
	C-664.8,1009.1-664.1,1009.8-664.1,1010.6L-664.1,1010.6z"/>
<path d="M-667.8,1009.1c0,1.2-1,2.1-2.1,2.1h-9.8c-1.2,0-2.1-1-2.1-2.1l0,0c0-1.2,1-2.1,2.1-2.1h9.8
	C-668.7,1007-667.8,1007.9-667.8,1009.1L-667.8,1009.1z"/>
</svg>
