<?xml version="1.0" encoding="utf-8"?>
<!-- Generator: Adobe Illustrator 19.1.0, SVG Export Plug-In . SVG Version: 6.00 Build 0)  -->
<svg version="1.1" id="Layer_1" xmlns="http://www.w3.org/2000/svg" xmlns:xlink="http://www.w3.org/1999/xlink" x="0px" y="0px"
	 viewBox="-694 976.1 49.5 48.9" style="enable-background:new -694 976.1 49.5 48.9;" xml:space="preserve">
<style type="text/css">
	.st0{fill:none;stroke:#FFFFFF;stroke-width:2;stroke-miterlimit:10;}
	.st1{fill:#FFFFFF;}
</style>
<circle class="st0" cx="-669.2" cy="1000.8" r="22.8"/>
<path class="st1" d="M-651.9,1004.4v4.3c0,0-4.5,2-10,1.2v-3.8c-0.6-2.8-2.2-3.8-3.4-4.1c0.7-1.1,1.8-1.8,3.5-1.8l2.7,4.2l2.3-4.2
	C-656.7,1000.1-652.9,999.6-651.9,1004.4z"/>
<circle class="st1" cx="-659.2" cy="995.5" r="4.3"/>
<circle class="st1" cx="-669.1" cy="997.1" r="4.3"/>
<path class="st1" d="M-676.1,1009.8c-2.7,0.5-6.4,0.5-10.2-1.1c0,0-1.6-8.6,4.4-8.6l2.7,4.2l2.3-4.2c0,0,2.3-0.3,3.8,1.8
	C-676.6,1003-676.3,1008.1-676.1,1009.8z"/>
<circle class="st1" cx="-679.4" cy="995.5" r="4.3"/>
<path class="st1" d="M-675.6,1010.4c0,0-1.5-8.3,4.1-8.3l2.5,4.1l2.2-4.1c0,0,3.5-0.4,4.5,4.1v4.1
	C-662.3,1010.4-668.8,1013.4-675.6,1010.4z"/>
</svg>
