<?xml version="1.0" encoding="utf-8"?>
<!-- Generator: Adobe Illustrator 19.1.0, SVG Export Plug-In . SVG Version: 6.00 Build 0)  -->
<svg version="1.1" id="Layer_1" xmlns="http://www.w3.org/2000/svg" xmlns:xlink="http://www.w3.org/1999/xlink" x="0px" y="0px"
	 viewBox="-702 987.5 35 27.5" style="enable-background:new -702 987.5 35 27.5;" xml:space="preserve">
<style type="text/css">
	.st0{fill:#FFFFFF;}
</style>
<path class="st0" d="M-683.1,1002.2c-0.4,0.7-1.4,2.4-1.9,2.9c-1.1,1.2-2.6,0.6-2.6,0.5c-0.4-0.1-0.8-0.4-1.1-0.8
	c-0.3-0.6-0.3-1.4-0.1-1.8c0.4-1.2,2.2-4.2,2.7-5.1h-7l-6.8-3.7v10.1l4.7,2.9l1-2c0.2-0.5,0.9-0.7,1.4-0.5c0.5,0.3,0.7,0.9,0.5,1.5
	l-1,2.1l0.8,0.4l1-2c0.3-0.6,0.9-0.8,1.5-0.5c0.5,0.3,0.7,0.9,0.5,1.5l-1,2.1l0.7,0.4l1-2c0.3-0.6,0.9-0.8,1.5-0.5
	c0.6,0.3,0.7,0.9,0.5,1.5l-1,2l0.8,0.4l1.1-2.3c0.3-0.6,0.9-0.8,1.5-0.5c0.6,0.3,0.7,0.9,0.5,1.5l-1.2,2.4l2.8,1.6
	c1.7-3.2,3-8.3,3.2-9.7"/>
<g>
	<path class="st0" d="M-692.5,1006.1l-1.5,3c-0.1,0.2-0.3,0.4-0.5,0.5c-0.2,0.1-0.4,0.1-0.6,0c-0.2-0.1-0.3-0.3-0.4-0.5
		c-0.1-0.2,0-0.5,0-0.7l1.5-3c0.1-0.2,0.3-0.4,0.5-0.5c0.1,0,0.2,0,0.3,0c0.1,0,0.2,0,0.3,0.1
		C-692.5,1005.1-692.3,1005.6-692.5,1006.1z"/>
</g>
<g>
	<path class="st0" d="M-689.8,1007.5l-1.5,3.1c-0.2,0.4-0.7,0.6-1.1,0.4c-0.4-0.2-0.6-0.7-0.4-1.1l1.5-3.1c0.2-0.3,0.5-0.5,0.8-0.5
		c0.1,0,0.2,0,0.4,0.1C-689.8,1006.6-689.6,1007.1-689.8,1007.5z"/>
</g>
<g>
	<path class="st0" d="M-687.1,1009.1l-1.5,3.1c-0.1,0.2-0.2,0.4-0.5,0.4c-0.2,0.1-0.4,0.1-0.6,0c-0.2-0.1-0.3-0.3-0.4-0.5
		c-0.1-0.2-0.1-0.5,0-0.7l1.5-3.1c0.1-0.2,0.3-0.4,0.5-0.5c0.1,0,0.2,0,0.3,0c0.1,0,0.2,0,0.3,0.1c0.2,0.1,0.3,0.3,0.4,0.5
		C-686.9,1008.6-687,1008.9-687.1,1009.1z"/>
</g>
<g>
	<path class="st0" d="M-669.1,992.5v10.1l-6.5,3.5l-7.4-4.4l-0.7-0.1c0,0-1.3,2.3-2,3c-0.7,0.8-1.8,0.4-1.8,0.4
		c-0.3-0.1-0.5-0.2-0.6-0.5c-0.2-0.4-0.2-0.9-0.1-1.2c0.4-1.3,2.7-5,2.8-5.2c0.4-0.2,3.2-0.2,5.8-0.1h0.1L-669.1,992.5z"/>
</g>
<path class="st0" d="M-680.7,1005.7c-0.4-0.2-0.5-0.8-0.2-1.2l0,0c0.3-0.4,0.8-0.6,1.1-0.4l2.6,1.6c0.4,0.2,0.5,0.8,0.2,1.2l0,0
	c-0.3,0.4-0.8,0.6-1.1,0.4L-680.7,1005.7z"/>
<path class="st0" d="M-681.4,1008.5c-0.3-0.2-0.3-0.8,0-1.3l0,0c0.3-0.5,0.8-0.8,1.1-0.6l2.3,1.4c0.3,0.2,0.3,0.8,0,1.3l0,0
	c-0.3,0.5-0.8,0.8-1.1,0.6L-681.4,1008.5z"/>
<path class="st0" d="M-678.9,1010.6l-1.5-0.9c-0.2-0.1-0.6,0.2-0.9,0.7c-0.1,0.1-0.1,0.3-0.2,0.4c0,0.2,0,0.5-0.1,0.7l0,0l1.5,0.9
	c0.2,0.1,0.6-0.2,0.9-0.7S-678.8,1010.7-678.9,1010.6z"/>
<path class="st0" d="M-680.4,1013.1l-1.2-0.7c-0.1-0.1-0.5,0.2-0.8,0.7l-0.2,0.6c-0.1,0.2-0.1,0.3,0,0.4l1.2,0.7
	c0.2,0.1,0.5-0.3,0.9-0.8C-680.1,1013.4-680.2,1013.2-680.4,1013.1z"/>
<g>
	<path class="st0" d="M-684,1009.8l-1.5,3.1c-0.4,0.5-0.5,0.7-0.8,0.8c-0.2,0.1-0.4,0.1-0.6,0c-0.2-0.1-0.3-0.3-0.4-0.5
		s-0.1-0.5,0.1-0.7l1.5-3.1c0.1-0.3,0.5-0.5,0.8-0.5c0.1,0,0.2,0,0.4,0.1C-684.2,1009.2-684.1,1009.7-684,1009.8z"/>
</g>
<rect x="-668.8" y="992.2" class="st0" width="0.7" height="11.2"/>
<rect x="-700.9" y="993.6" class="st0" width="0.7" height="11.2"/>
</svg>
