<?xml version="1.0" encoding="utf-8"?>
<!-- Generator: Adobe Illustrator 19.1.0, SVG Export Plug-In . SVG Version: 6.00 Build 0)  -->
<svg version="1.1" id="Layer_1" xmlns="http://www.w3.org/2000/svg" xmlns:xlink="http://www.w3.org/1999/xlink" x="0px" y="0px"
	 viewBox="-703 986.1 32.1 29.9" style="enable-background:new -703 986.1 32.1 29.9;" xml:space="preserve">
<style type="text/css">
	.st0{fill:#FFFFFF;}
	.st1{fill:none;}
</style>
<path class="st0" d="M-691.3,988.4c0-0.8-0.6-1.4-1.4-1.4l0,0c-0.8,0-1.4,0.6-1.4,1.4v4.6c0,0.8,0.6,1.4,1.4,1.4l0,0
	c0.8,0,1.4-0.6,1.4-1.4V988.4z"/>
<path class="st0" d="M-682.5,988.2c0-0.8-0.6-1.4-1.4-1.4l0,0c-0.8,0-1.4,0.6-1.4,1.4v4.6c0,0.8,0.6,1.4,1.4,1.4l0,0
	c0.8,0,1.4-0.6,1.4-1.4V988.2z"/>
<path class="st0" d="M-684.8,989.6c1.2,0,2.1-0.6,2.1-1.4l0,0c0-0.8-0.9-1.4-2.1-1.4h-6.8c-1.2,0-2.1,0.6-2.1,1.4l0,0
	c0,0.8,0.9,1.4,2.1,1.4H-684.8z"/>
<path class="st1" d="M-677.5,994.7h-20.9c-1,0-1.8,0.8-1.8,1.8v12c0,1,0.8,1.8,1.8,1.8h17.6c0-0.1,0-0.2,0-0.2c0-2,1.6-3.6,3.6-3.6
	c0.5,0,1.1,0.1,1.5,0.3v-10.3C-675.7,995.5-676.5,994.7-677.5,994.7z"/>
<path class="st1" d="M-676,1009.4c-0.3,0.5-0.9,0.9-1.6,0.9h-1.1c0-0.1,0-0.2,0-0.2c0-0.8,0.6-1.4,1.4-1.4
	C-676.7,1008.7-676.2,1009-676,1009.4z"/>
<path class="st0" d="M-673.7,996.5v12c0,0.2,0,0.4-0.1,0.6c-0.3-1-1-1.9-1.9-2.3v-10.3c0-1-0.8-1.8-1.8-1.8h-20.9
	c-1,0-1.8,0.8-1.8,1.8v12c0,1,0.8,1.8,1.8,1.8h17.6c0.1,0.8,0.3,1.5,0.8,2h-18.4c-2.1,0-3.8-1.7-3.8-3.8v-12c0-2.1,1.7-3.8,3.8-3.8
	h20.8C-675.4,992.7-673.7,994.4-673.7,996.5z"/>
<path class="st0" d="M-675.7,1006.9v1.7c0,0.3-0.1,0.6-0.3,0.9c-0.2-0.5-0.7-0.8-1.3-0.8c-0.8,0-1.4,0.6-1.4,1.4c0,0.1,0,0.2,0,0.2
	h-2.2c0-0.1,0-0.2,0-0.2c0-2,1.6-3.6,3.6-3.6C-676.7,1006.5-676.2,1006.6-675.7,1006.9z"/>
<path class="st0" d="M-673.6,1010.1c0,2-1.6,3.6-3.6,3.6c-1.1,0-2.1-0.5-2.8-1.3h2.5c1.9,0,3.5-1.4,3.8-3.2
	C-673.7,1009.5-673.6,1009.8-673.6,1010.1z"/>
<g>
	<g>
		<path class="st0" d="M-677.2,1006.5c-2,0-3.6,1.6-3.6,3.6s1.6,3.6,3.6,3.6s3.6-1.6,3.6-3.6S-675.3,1006.5-677.2,1006.5z
			 M-677.2,1011.5c-0.8,0-1.4-0.6-1.4-1.4s0.6-1.4,1.4-1.4s1.4,0.6,1.4,1.4S-676.4,1011.5-677.2,1011.5z"/>
	</g>
</g>
<rect x="-678.3" y="1004.7" class="st0" width="2.2" height="2.2"/>
<rect x="-674.6" y="1006.6" transform="matrix(-0.6392 -0.7691 0.7691 -0.6392 -1878.9564 1133.8381)" class="st0" width="2.2" height="2.2"/>
<rect x="-674.4" y="1011.2" transform="matrix(0.4636 -0.8861 0.8861 0.4636 -1258.1313 -53.6129)" class="st0" width="2.2" height="2.2"/>
<rect x="-678.3" y="1013.2" class="st0" width="2.2" height="2.2"/>
<rect x="-681.9" y="1006.7" transform="matrix(0.6392 -0.7691 0.7691 0.6392 -1020.7455 -159.9046)" class="st0" width="2.2" height="2.2"/>
<rect x="-682" y="1011.3" transform="matrix(-0.4636 -0.8861 0.8861 -0.4636 -1893.6478 878.4257)" class="st0" width="2.2" height="2.2"/>
<rect x="-696.7" y="993.7" class="st0" width="0.6" height="17.6"/>
<rect x="-679.5" y="993.7" class="st0" width="0.6" height="17.6"/>
</svg>
