<?xml version="1.0" encoding="utf-8"?>
<!-- Generator: Adobe Illustrator 19.1.0, SVG Export Plug-In . SVG Version: 6.00 Build 0)  -->
<svg version="1.1" id="Layer_1" xmlns="http://www.w3.org/2000/svg" xmlns:xlink="http://www.w3.org/1999/xlink" x="0px" y="0px"
	 viewBox="-695 976.8 48.2 48.2" style="enable-background:new -695 976.8 48.2 48.2;" xml:space="preserve">
<style type="text/css">
	.st0{stroke:#FFFFFF;stroke-width:0.75;stroke-miterlimit:10;}
</style>
<path class="st0" d="M-665.1,1002.9c0,0-1.3-7,3.6-7l2.2,3.4l1.9-3.4c0,0,3.1-0.4,3.9,3.5v3.5
	C-653.6,1002.9-659.2,1005.4-665.1,1002.9z"/>
<circle class="st0" cx="-659.5" cy="992.1" r="3.5"/>
<circle class="st0" cx="-671.4" cy="1006.9" r="3.5"/>
<path class="st0" d="M-688.9,1002.2c0,0-1.3-7,3.6-7l2.2,3.4l1.9-3.4c0,0,3.1-0.4,3.9,3.5v3.5
	C-677.4,1002.2-683,1004.7-688.9,1002.2z"/>
<circle class="st0" cx="-683.3" cy="991.4" r="3.5"/>
<path class="st0" d="M-676.9,1017.5c0,0-1.3-7,3.6-7l2.2,3.4l1.9-3.4c0,0,3.1-0.4,3.9,3.5v3.5
	C-665.4,1017.5-671.1,1020.1-676.9,1017.5z"/>
<rect x="-679.4" y="999.2" transform="matrix(-0.8622 0.5066 -0.5066 -0.8622 -754.0182 2218.8479)" width="1.2" height="15.3"/>
<rect x="-664.9" y="999.2" transform="matrix(-0.9013 -0.4332 0.4332 -0.9013 -1699.1497 1626.5242)" width="1.2" height="15.3"/>
</svg>
