<?xml version="1.0" encoding="utf-8"?>
<!-- Generator: Adobe Illustrator 19.1.0, SVG Export Plug-In . SVG Version: 6.00 Build 0)  -->
<svg version="1.1" id="Layer_1" xmlns="http://www.w3.org/2000/svg" xmlns:xlink="http://www.w3.org/1999/xlink" x="0px" y="0px"
	 viewBox="-701 986.6 35.4 29.4" style="enable-background:new -701 986.6 35.4 29.4;" xml:space="preserve">
<style type="text/css">
	.st0{fill:#FFFFFF;}
	.st1{fill:none;stroke:#FFFFFF;stroke-width:2;stroke-miterlimit:10;}
</style>
<g>
	<path class="st0" d="M-687.2,1010.3c0,0-0.2-1.4,1.7-1.6c0,0,6-1.8,10.6,0.8l1.8,5c0,0-9.3,1.7-15.3,0.2c0,0-0.4,0.2-1.3-0.3
		c0,0-4.6-6.4-2.7-7.5c0,0,1.6-1.6,3.1,0.1C-689.2,1007.1-686.9,1009.6-687.2,1010.3z"/>
	<ellipse class="st0" cx="-681" cy="1002" rx="4.7" ry="4.7"/>
	
		<rect x="-692.2" y="998" transform="matrix(-0.9541 0.2994 -0.2994 -0.9541 -1051.9941 2166.1677)" class="st0" width="0.5" height="9"/>
</g>
<rect x="-698.3" y="989.5" class="st1" width="30.5" height="21.4"/>
</svg>
