<?xml version="1.0" encoding="utf-8"?>
<!-- Generator: Adobe Illustrator 19.1.0, SVG Export Plug-In . SVG Version: 6.00 Build 0)  -->
<svg version="1.1" id="Layer_1" xmlns="http://www.w3.org/2000/svg" xmlns:xlink="http://www.w3.org/1999/xlink" x="0px" y="0px"
	 viewBox="-695 976.6 48.6 48.4" style="enable-background:new -695 976.6 48.6 48.4;" xml:space="preserve">
<style type="text/css">
	.st0{fill:none;stroke:#000000;stroke-width:1.5;stroke-miterlimit:10;}
</style>
<rect x="-679.5" y="988.7" class="st0" width="17.5" height="24.4"/>
<rect x="-676.7" y="992.5" width="8.3" height="1"/>
<rect x="-676.7" y="997.3" width="8.3" height="1"/>
<rect x="-676.8" y="1001.1" width="8.3" height="1"/>
<rect x="-676.7" y="1004.5" width="8.3" height="1"/>
<rect x="-676.9" y="1008.5" width="8.3" height="1"/>
<g>
	<rect x="-667.1" y="991.8" width="2" height="1.7"/>
	<rect x="-667.1" y="997" width="2" height="1.7"/>
	<g>
		<rect x="-666.1" y="1000.3" transform="matrix(-0.8041 -0.5945 0.5945 -0.8041 -1796.4832 1411.1613)" width="0.7" height="2.5"/>
		<rect x="-667.1" y="1001.5" transform="matrix(-0.5822 0.813 -0.813 -0.5822 -240.1212 2127.8279)" width="0.7" height="1.4"/>
	</g>
	<g>
		<rect x="-665.8" y="1003.8" transform="matrix(-0.8041 -0.5945 0.5945 -0.8041 -1798.0503 1417.5519)" width="0.7" height="2.5"/>
		<rect x="-666.8" y="1004.9" transform="matrix(-0.5822 0.813 -0.813 -0.5822 -236.8124 2132.8804)" width="0.7" height="1.4"/>
	</g>
	<rect x="-667.1" y="1008.2" width="2" height="1.7"/>
</g>
</svg>
