<?xml version="1.0" encoding="utf-8"?>
<!-- Generator: Adobe Illustrator 19.1.0, SVG Export Plug-In . SVG Version: 6.00 Build 0)  -->
<svg version="1.1" id="Layer_1" xmlns="http://www.w3.org/2000/svg" xmlns:xlink="http://www.w3.org/1999/xlink" x="0px" y="0px"
	 viewBox="-704 985 29.8 32" style="enable-background:new -704 985 29.8 32;" xml:space="preserve">
<style type="text/css">
	.st0{fill:none;stroke:#FFFFFF;stroke-width:2;stroke-miterlimit:10;}
	.st1{fill:#FFFFFF;}
</style>
<circle class="st0" cx="-692.9" cy="996.4" r="9.6"/>
<path class="st1" d="M-687.3,1005.6l2.2-2.1l10.2,9.8c0,0,0,2.9-2.9,2.9L-687.3,1005.6z"/>
<g>
	<path class="st1" d="M-686,997.2v1.8c0,0-1.8,0.8-4.1,0.5v-1.6c-0.3-1.2-0.9-1.6-1.4-1.7c0.3-0.4,0.7-0.8,1.5-0.8l1.1,1.7l1-1.7
		C-688,995.4-686.4,995.2-686,997.2z"/>
	<circle class="st1" cx="-689" cy="993.5" r="1.8"/>
	<circle class="st1" cx="-693.1" cy="994.2" r="1.8"/>
	<path class="st1" d="M-695.9,999.4c-1.1,0.2-2.6,0.2-4.2-0.5c0,0-0.6-3.5,1.8-3.5l1.1,1.7l1-1.7c0,0,0.9-0.1,1.6,0.8
		C-696.1,996.6-696,998.7-695.9,999.4z"/>
	<circle class="st1" cx="-697.3" cy="993.5" r="1.8"/>
	<path class="st1" d="M-695.7,999.6c0,0-0.6-3.4,1.7-3.4l1,1.7l0.9-1.7c0,0,1.5-0.2,1.9,1.7v1.7
		C-690.3,999.6-692.9,1000.9-695.7,999.6z"/>
</g>
</svg>
