<?xml version="1.0" encoding="utf-8"?>
<!-- Generator: Adobe Illustrator 18.1.1, SVG Export Plug-In . SVG Version: 6.00 Build 0)  -->
<svg version="1.1" id="Layer_1" xmlns="http://www.w3.org/2000/svg" xmlns:xlink="http://www.w3.org/1999/xlink" x="0px" y="0px"
	 viewBox="0 0 300 300" enable-background="new 0 0 300 300" xml:space="preserve">
<text transform="matrix(1 0 0 1 9.4294 267.0793)" fill="#FFFFFF" font-family="'TimesNewRomanPSMT'" font-size="113.879" letter-spacing="-3">A</text>
<text transform="matrix(1 0 0 1 87.0102 267.0793)" fill="#FFFFFF" font-family="'TimesNewRomanPSMT'" font-size="113.879">gre</text>
<text transform="matrix(1 0 0 1 225.8005 267.0793)" fill="#FFFFFF" font-family="'TimesNewRomanPSMT'" font-size="113.879">e</text>
<text transform="matrix(1 0 0 1 266.5551 208.4853)" fill="#FFFFFF" font-family="'TimesNewRomanPSMT'" font-size="35.5872">®</text>
<path fill="#FFFFFF" d="M16.5,64.8V90h69.4l56.9-56.9l52.3,52.3l8.5-8.2c9.6-9.6,1.1-26.3-7.5-35.2l-29.9-29.9
	c-13.5-13.5-29.9-11-44.8,3.9c-21.4,21.4-48.4,48.4-48.4,48.4L16.5,64.8z"/>
<path fill="#FFFFFF" d="M273.8,118.9V93.6h-69.8l-56.9,56.9l-52-52.3l-8.5,8.2c-9.6,9.6-1.1,26.3,7.5,35.2l29.9,29.9
	c13.5,13.5,29.9,11,44.8-3.9c21.4-21.4,48.4-48.4,48.4-48.4L273.8,118.9z"/>
<g>
	<path fill="#FFFFFF" d="M145.5,76.6l15.9,15.9l-15.9,15.9l-15.9-15.9L145.5,76.6 M145.5,42.7L95.6,92.5l49.9,49.9l49.9-49.9
		L145.5,42.7L145.5,42.7z"/>
</g>
</svg>
